{"title":"Lord Of War 2005 BRRip 720p x264 AAC [VX] [P2PDL]","uid":7708570,"size":787480128,"categoryP":"video","categoryS":"hd___movies","magnet":"?xt=urn:btih:f3c5d368c7aa1de71b30053b3276bc4c784e999f&amp;dn=Lord+Of+War+2005+BRRip+720p+x264+AAC+%5BVX%5D+%5BP2PDL%5D&amp;tr=udp%3A%2F%2Ftracker.openbittorrent.com%3A80&amp;tr=udp%3A%2F%2Fopen.demonii.com%3A1337&amp;tr=udp%3A%2F%2Ftracker.coppersurfer.tk%3A6969&amp;tr=udp%3A%2F%2Fexodus.desync.com%3A6969","seeders":5,"leechers":0,"uploader":"Vitamin_X","files":-1,"time":1349751744,"description":"Cover:  &lt;a href=&quot;\nhttp://www.shotpix.com/images/32217792463431148461.jpeg&quot; rel=&quot;nofollow&quot; target=&quot;_NEW&quot;&gt;\nhttp://www.shotpix.com/images/32217792463431148461.jpeg&lt;/a&gt;\n\n\nRelease Title: Lord of War (2005) \n\n\nRatings: 7.6/10 |  &lt;a href=&quot;\nhttp://www.imdb.com/title/tt0399295/&quot; rel=&quot;nofollow&quot; target=&quot;_NEW&quot;&gt;\nhttp://www.imdb.com/title/tt0399295/&lt;/a&gt;\n\n\nPlot: An arms dealer confronts the morality of his work as he is being chased by an Interpol agent.\n\nDirector: Andrew Niccol\n\nWriter: Andrew Niccol\n\nStars:  Nicolas Cage, Ethan Hawke and Jared Leto\n\nGenres: Crime | Drama | Thriller\n\n\t\t\t\t\t\n\n\nGeneral\nFormat                         : MPEG-4\nFormat profile                 : Base Media / Version 2\nCodec ID                       : mp42\nFile size                      : 742 MiB\nDuration                       : 2h 1mn\nOverall bit rate mode          : Variable\nOverall bit rate               : 853 Kbps\n\nSource                         : Lord Of War.2005.720p.BluRay.x264-REVEiLLE (Thanks!)\n\nVideo\nID                             : 1\nFormat                         : AVC\nFormat/Info                    : Advanced Video Codec\nFormat settings, ReFrames      : 5 frames\nCodec ID                       : avc1\nCodec ID/Info                  : Advanced Video Coding\nDuration                       : 2h 1mn\nBit rate mode                  : Variable\nBit rate                       : 752 Kbps\nWidth                          : 1 280 pixels\nHeight                         : 528 pixels\nDisplay aspect ratio           : 2.40:1\nFrame rate mode                : Variable\nFrame rate                     : 23.976 fps\nStream size                    : 655 MiB (88%)\nWriting library                : x264 core 125\n\nAudio\nID                             : 2\nFormat                         : AAC\nFormat/Info                    : Advanced Audio Codec\nFormat profile                 : LC\nCodec ID                       : 40\nDuration                       : 2h 1mn\nBit rate mode                  : Variable\nBit rate                       : 96.0 Kbps\nMaximum bit rate               : 184 Kbps\nChannel(s)                     : 2 channels\nChannel positions              : Front: L R\nSampling rate                  : 48.0 KHz\nCompression mode               : Lossy\nStream size                    : 83.6 MiB (11%)\nLanguage                       : English\n\n\nSubtitle                       : Yes (English)\n\n\nScreens:\n\n &lt;a href=&quot;\nhttp://www.shotpix.com/images/63502984700375149800.png&quot; rel=&quot;nofollow&quot; target=&quot;_NEW&quot;&gt;\nhttp://www.shotpix.com/images/63502984700375149800.png&lt;/a&gt; &lt;a href=&quot;\nhttp://www.shotpix.com/images/91956247468559377576.png&quot; rel=&quot;nofollow&quot; target=&quot;_NEW&quot;&gt;\nhttp://www.shotpix.com/images/91956247468559377576.png&lt;/a&gt; &lt;a href=&quot;\nhttp://www.shotpix.com/images/17259416099808352442.png&quot; rel=&quot;nofollow&quot; target=&quot;_NEW&quot;&gt;\nhttp://www.shotpix.com/images/17259416099808352442.png&lt;/a&gt; &lt;a href=&quot;\nhttp://www.shotpix.com/images/37560050686765386481.png&quot; rel=&quot;nofollow&quot; target=&quot;_NEW&quot;&gt;\nhttp://www.shotpix.com/images/37560050686765386481.png&lt;/a&gt; &lt;a href=&quot;\nhttp://www.shotpix.com/images/37485636338155311309.png&quot; rel=&quot;nofollow&quot; target=&quot;_NEW&quot;&gt;\nhttp://www.shotpix.com/images/37485636338155311309.png&lt;/a&gt; &lt;a href=&quot;\nhttp://www.shotpix.com/images/02793325430129420265.png&quot; rel=&quot;nofollow&quot; target=&quot;_NEW&quot;&gt;\nhttp://www.shotpix.com/images/02793325430129420265.png&lt;/a&gt;\n\n------------------------------------------------------------------------\n\n\nNotes:\n\n* Check sample to be sure.\n* Best played on VLC Media Player.\n* Install shark007 codecs in case of any kind of problem in playback (For non-VLC Media Player users).\n* Alternatively, install Core AVC codecs, the fastest decoder that there is coupled with Community Center Codec Pack and play on Windows Media Player Classic.\n* Read NFO.\n* Help in seeding this torrent as much as you can. \n\n\nGreets to: srkfan, VYTO, MgB, staff members at ExtraTorrent, TPB,KAT, 1337x, PublicHD, Ahashare,\nSilverTorrent, TorrentMafia, P2PDL, and all others\n\n\nEncoder Notes: Looking For Early Access To Anything You Can Provide DVDScr, R5, DVDRips, BluRay, Direct Audio, Early Music\nReleases, Seedboxes, Links, Dedicated Servers anything u can provide, Advance / Promo CDs/DVDs. If You Got anything to\noffer contact me at &quot;&lt;a class=&quot;__cf_email__&quot; href=&quot;/cdn-cgi/l/email-protection&quot; data-cfemail=&quot;c2a1adacb6a3a1b682b6abacbbafeca7b7&quot;&gt;[email&amp;#160;protected]&lt;/a&gt;&lt;script cf-hash='f9e31' type=&quot;text/javascript&quot;&gt;\n/* &lt;![CDATA[ */!function(){try{var t=&quot;currentScript&quot;in document?document.currentScript:function(){for(var t=document.getElementsByTagName(&quot;script&quot;),e=t.length;e--;)if(t[e].getAttribute(&quot;cf-hash&quot;))return t[e]}();if(t&amp;&amp;t.previousSibling){var e,r,n,i,c=t.previousSibling,a=c.getAttribute(&quot;data-cfemail&quot;);if(a){for(e=&quot;&quot;,r=parseInt(a.substr(0,2),16),n=2;a.length-n;n+=2)i=parseInt(a.substr(n,2),16)^r,e+=String.fromCharCode(i);e=document.createTextNode(e),c.parentNode.replaceChild(e,c)}}}catch(u){}}();/* ]]&gt; */&lt;/script&gt;&quot;\n\n\nFacebook Fan Page: www . facebook . com / p2pdl\n\n\nEnhanced for best viewing experience. Enjoy!","torrent":{"xt":"urn:btih:f3c5d368c7aa1de71b30053b3276bc4c784e999f","amp;dn":"Lord+Of+War+2005+BRRip+720p+x264+AAC+%5BVX%5D+%5BP2PDL%5D","amp;tr":["udp%3A%2F%2Ftracker.openbittorrent.com%3A80","udp%3A%2F%2Fopen.demonii.com%3A1337","udp%3A%2F%2Ftracker.coppersurfer.tk%3A6969","udp%3A%2F%2Fexodus.desync.com%3A6969"],"infoHash":"f3c5d368c7aa1de71b30053b3276bc4c784e999f","infoHashBuffer":{"type":"Buffer","data":[243,197,211,104,199,170,29,231,27,48,5,59,50,118,188,76,120,78,153,159]},"announce":[],"urlList":[]}}